<svg xmlns="http://www.w3.org/2000/svg" viewBox="0 0 800 1000" width="800" height="1000">
<rect width="800" height="1000" fill="#f1e9dc"/>
<ellipse cx="400" cy="820" rx="250" ry="26" fill="#2b2118" opacity="0.08"/>
<rect x="190" y="330" width="420" height="440" rx="40" fill="#5e6b2f" opacity="0.15"/><circle cx="280" cy="420" r="62" fill="#ffffff"/><circle cx="280" cy="420" r="60" fill="none" stroke="#c9a57e" stroke-width="3" opacity="0.6"/><circle cx="280" cy="420" r="16" fill="#f1e9dc"/><circle cx="400" cy="420" r="62" fill="#ffffff"/><circle cx="400" cy="420" r="60" fill="none" stroke="#c9a57e" stroke-width="3" opacity="0.6"/><circle cx="400" cy="420" r="16" fill="#f1e9dc"/><circle cx="520" cy="420" r="62" fill="#ffffff"/><circle cx="520" cy="420" r="60" fill="none" stroke="#c9a57e" stroke-width="3" opacity="0.6"/><circle cx="520" cy="420" r="16" fill="#f1e9dc"/><circle cx="280" cy="560" r="62" fill="#ffffff"/><circle cx="280" cy="560" r="60" fill="none" stroke="#c9a57e" stroke-width="3" opacity="0.6"/><circle cx="280" cy="560" r="16" fill="#f1e9dc"/><circle cx="400" cy="560" r="62" fill="#ffffff"/><circle cx="400" cy="560" r="60" fill="none" stroke="#c9a57e" stroke-width="3" opacity="0.6"/><circle cx="400" cy="560" r="16" fill="#f1e9dc"/><circle cx="520" cy="560" r="62" fill="#ffffff"/><circle cx="520" cy="560" r="60" fill="none" stroke="#c9a57e" stroke-width="3" opacity="0.6"/><circle cx="520" cy="560" r="16" fill="#f1e9dc"/><circle cx="340" cy="690" r="62" fill="#ffffff"/><circle cx="340" cy="690" r="60" fill="none" stroke="#c9a57e" stroke-width="3" opacity="0.6"/><circle cx="340" cy="690" r="16" fill="#f1e9dc"/><circle cx="460" cy="690" r="62" fill="#ffffff"/><circle cx="460" cy="690" r="60" fill="none" stroke="#c9a57e" stroke-width="3" opacity="0.6"/><circle cx="460" cy="690" r="16" fill="#f1e9dc"/>
<rect x="230" y="880" width="340" height="56" rx="28" fill="#ffffff" opacity="0.9"/>
<text x="400" y="917" text-anchor="middle" font-family="Apple SD Gothic Neo, Noto Sans KR, sans-serif" font-size="26" font-weight="700" fill="#6b4a2b">3겹 화장지 30롤</text>
</svg>